<svg preserveAspectRatio="xMidYMid meet" data-bbox="20 34.1 160.1 131.7" fill='#653694' xmlns="http://www.w3.org/2000/svg" width="200" height="200" viewBox="20 34.1 160.1 131.7" data-type="shape" role="img" aria-labelledby="svgcid--kixb84-69cdna"><title id="svgcid--kixb84-69cdna"></title>
    <g>
        <path d="M147.6 140.5h20.3c2 0 4.1-1.9 4.1-4.1V46.3c0-2.2-2-4.1-4.1-4.1H64.6c-2.1 0-4.1 1.9-4.1 4.1v16.2h79c4.6 0 8.1 3.4 8.1 8.1v69.9zm0 8.1v9.1c0 4.7-3.5 8.1-8.1 8.1H28.1c-4.6 0-8.1-3.4-8.1-8.1V70.6c0-5.1 3-8.1 8.1-8.1h24.3V46.3c0-6.8 5.1-12.2 12.2-12.2h102.3c7.1 0 13.2 5.1 13.2 12.2v90.1c0 7.1-5.1 12.2-12.2 12.2h-20.3zm-8.1-16.2V70.6H28.1v49.6l29.4-28.4L96 134.3l24.3-20.3 19.2 18.4zm0 12.2l-19.2-19.2L95 146.7l-37.5-42.5-29.4 27.3v26.3h111.4v-13.2zm-21.3-51.7c0 7-5.8 13.2-13.2 13.2-7.4 0-13.2-6.1-13.2-13.2 0-7 5.8-13.2 13.2-13.2 7.4 0 13.2 6.2 13.2 13.2z"></path>
    </g>
</svg>