<svg preserveAspectRatio="none" data-bbox="20 20.04 159.96 159.96" xmlns="http://www.w3.org/2000/svg" fill='#653694' width="200" height="200" viewBox="20 20.04 159.96 159.96" data-type="shape" role="img" aria-labelledby="svgcid-ldcizvifmtw4"><title id="svgcid-ldcizvifmtw4"></title>
    <g>
        <path d="M49.8 160.8c2.9-1 3-1.1.8-3.2l-8.5-8.5c-2.1-2.1-2.1-2.1-3.1.7l-5.4 16.5 16.2-5.5zM20 180l10.8-32.9c3-9 10.7-10.8 17.4-4.1l8.5 8.5c6.7 6.7 4.9 14.5-4.2 17.5L20 180zm114.4-93.8c5.6-5.7 5.6-15 0-20.7-5.7-5.7-14.8-5.7-20.5 0-5.7 5.7-5.7 15 0 20.7 5.7 5.8 14.8 5.8 20.5 0zm-27 6.6c-9.2-9.4-9.2-24.5 0-33.9 9.3-9.4 24.2-9.4 33.5 0 9.2 9.4 9.2 24.5 0 33.9-9.3 9.4-24.3 9.4-33.5 0zm38 55c5.7-8.5 4.3-21.8-2.9-29-3.1-3.1-3.4-8.1-.6-11.5.9-1.1 2.5-3.2 4.6-6.2 3.5-4.9 7.1-10.3 10.4-15.9 4.8-8.1 8.6-15.9 11.1-23.2 4.8-13.7 4.4-23.5-1-28.9-5.4-5.4-15.2-5.8-28.9-1-7.2 2.5-15.1 6.4-23.2 11.1-5.6 3.3-11 6.8-15.9 10.4-3 2.1-5.1 3.7-6.2 4.6-3.4 2.8-8.4 2.5-11.5-.6-7.2-7.2-20.5-8.6-29-2.9l-6.4 4.2 17 17c3.4 3.4 3.4 8.9 0 12.3l-12.3 12.3c-3.4 3.4-3.4 8.8 0 12.2l36.8 36.8c3.4 3.4 8.8 3.4 12.2 0l12.2-12.2c3.4-3.4 8.9-3.4 12.2 0l17 17 4.4-6.5zm27.7-120.9c24.5 24.5-24.5 85.8-24.5 85.8 10.1 10.1 11.9 28 4 40l-10.1 15.2-24.5-24.7-12.2 12.2c-6.8 6.8-17.7 6.8-24.5 0l-36.8-36.8c-6.8-6.8-6.8-17.7 0-24.5L56.8 82 32.3 57.5l15.2-10.1c11.9-7.9 29.8-6.2 40 4-.1 0 61.1-49 85.6-24.5z"></path>
    </g>
</svg>